HIERARCHY
ROOT LrigPelvis
{
	OFFSET 0.000000 0.000000 0.000000
	CHANNELS 6 Xposition Yposition Zposition Xrotation Yrotation Zrotation
	JOINT LrigSpine1
	{
		OFFSET 0.000000 0.000000 0.000000
		CHANNELS 6 Xposition Yposition Zposition Xrotation Yrotation Zrotation
		JOINT LrigSpine2
		{
			OFFSET 0.000000 0.000000 0.000000
			CHANNELS 6 Xposition Yposition Zposition Xrotation Yrotation Zrotation
			JOINT LrigRibcage
			{
				OFFSET 0.000000 0.000000 0.000000
				CHANNELS 6 Xposition Yposition Zposition Xrotation Yrotation Zrotation
				JOINT LrigNeck1
				{
					OFFSET 0.000000 0.000000 0.000000
					CHANNELS 6 Xposition Yposition Zposition Xrotation Yrotation Zrotation
					JOINT LrigNeck2
					{
						OFFSET 0.000000 0.000000 0.000000
						CHANNELS 6 Xposition Yposition Zposition Xrotation Yrotation Zrotation
						JOINT LrigNeck3
						{
							OFFSET 0.000000 0.000000 0.000000
							CHANNELS 6 Xposition Yposition Zposition Xrotation Yrotation Zrotation
							JOINT LrigScull
							{
								OFFSET 0.000000 0.000000 0.000000
								CHANNELS 6 Xposition Yposition Zposition Xrotation Yrotation Zrotation
								JOINT LrigScullBone001
								{
									OFFSET 0.000000 0.000000 0.000000
									CHANNELS 6 Xposition Yposition Zposition Xrotation Yrotation Zrotation
									End Site
									{
										OFFSET 0.000000 5.000000 0.000000
									}
								}
							}
						}
					}
				}
				JOINT Lrig_LEG_FL_Scapula
				{
					OFFSET 0.000000 0.000000 0.000000
					CHANNELS 6 Xposition Yposition Zposition Xrotation Yrotation Zrotation
					JOINT Lrig_LEG_FL_Humerus
					{
						OFFSET 0.000000 0.000000 0.000000
						CHANNELS 6 Xposition Yposition Zposition Xrotation Yrotation Zrotation
						JOINT Lrig_LEG_FL_Radius
						{
							OFFSET 0.000000 0.000000 0.000000
							CHANNELS 6 Xposition Yposition Zposition Xrotation Yrotation Zrotation
							JOINT Lrig_LEG_FL_Metacarpus
							{
								OFFSET 0.000000 0.000000 0.000000
								CHANNELS 6 Xposition Yposition Zposition Xrotation Yrotation Zrotation
								JOINT Lrig_LEG_FL_PhalangesManus
								{
									OFFSET 0.000000 0.000000 0.000000
									CHANNELS 6 Xposition Yposition Zposition Xrotation Yrotation Zrotation
									JOINT Lrig_LEG_FL_FrontHoof
									{
										OFFSET 0.000000 0.000000 0.000000
										CHANNELS 6 Xposition Yposition Zposition Xrotation Yrotation Zrotation
										End Site
										{
											OFFSET 0.000000 5.000000 0.000000
										}
									}
								}
							}
						}
					}
				}
				JOINT Lrig_LEG_FR_Scapula
				{
					OFFSET 0.000000 0.000000 0.000000
					CHANNELS 6 Xposition Yposition Zposition Xrotation Yrotation Zrotation
					JOINT Lrig_LEG_FR_Humerus
					{
						OFFSET 0.000000 0.000000 0.000000
						CHANNELS 6 Xposition Yposition Zposition Xrotation Yrotation Zrotation
						JOINT Lrig_LEG_FR_Radius
						{
							OFFSET 0.000000 0.000000 0.000000
							CHANNELS 6 Xposition Yposition Zposition Xrotation Yrotation Zrotation
							JOINT Lrig_LEG_FR_Metacarpus
							{
								OFFSET 0.000000 0.000000 0.000000
								CHANNELS 6 Xposition Yposition Zposition Xrotation Yrotation Zrotation
								JOINT Lrig_LEG_FR_PhalangesManus
								{
									OFFSET 0.000000 0.000000 0.000000
									CHANNELS 6 Xposition Yposition Zposition Xrotation Yrotation Zrotation
									JOINT Lrig_LEG_FR_FrontHoof
									{
										OFFSET 0.000000 0.000000 0.000000
										CHANNELS 6 Xposition Yposition Zposition Xrotation Yrotation Zrotation
										End Site
										{
											OFFSET 0.000000 5.000000 0.000000
										}
									}
								}
							}
						}
					}
				}
				JOINT LrigLWingCollarbone
				{
					OFFSET 0.000000 0.000000 0.000000
					CHANNELS 6 Xposition Yposition Zposition Xrotation Yrotation Zrotation
					JOINT LrigLWing1
					{
						OFFSET 0.000000 0.000000 0.000000
						CHANNELS 6 Xposition Yposition Zposition Xrotation Yrotation Zrotation
						JOINT LrigLWing2
						{
							OFFSET 0.000000 0.000000 0.000000
							CHANNELS 6 Xposition Yposition Zposition Xrotation Yrotation Zrotation
							JOINT LrigLWingPalm
							{
								OFFSET 0.000000 0.000000 0.000000
								CHANNELS 6 Xposition Yposition Zposition Xrotation Yrotation Zrotation
								End Site
								{
									OFFSET 0.000000 5.000000 0.000000
								}
							}
						}
					}
				}
				JOINT LrigRWingCollarbone
				{
					OFFSET 0.000000 0.000000 0.000000
					CHANNELS 6 Xposition Yposition Zposition Xrotation Yrotation Zrotation
					JOINT LrigRWing1
					{
						OFFSET 0.000000 0.000000 0.000000
						CHANNELS 6 Xposition Yposition Zposition Xrotation Yrotation Zrotation
						JOINT LrigRWing2
						{
							OFFSET 0.000000 0.000000 0.000000
							CHANNELS 6 Xposition Yposition Zposition Xrotation Yrotation Zrotation
							JOINT LrigRWingPalm
							{
								OFFSET 0.000000 0.000000 0.000000
								CHANNELS 6 Xposition Yposition Zposition Xrotation Yrotation Zrotation
								End Site
								{
									OFFSET 0.000000 5.000000 0.000000
								}
							}
						}
					}
				}
				JOINT weapon_bone
				{
					OFFSET 0.000000 0.000000 0.000000
					CHANNELS 6 Xposition Yposition Zposition Xrotation Yrotation Zrotation
					End Site
					{
						OFFSET 0.000000 5.000000 0.000000
					}
				}
			}
		}
	}
	JOINT Lrig_LEG_BR_Femur
	{
		OFFSET 0.000000 0.000000 0.000000
		CHANNELS 6 Xposition Yposition Zposition Xrotation Yrotation Zrotation
		JOINT Lrig_LEG_BR_Tibia
		{
			OFFSET 0.000000 0.000000 0.000000
			CHANNELS 6 Xposition Yposition Zposition Xrotation Yrotation Zrotation
			JOINT Lrig_LEG_BR_LargeCannon
			{
				OFFSET 0.000000 0.000000 0.000000
				CHANNELS 6 Xposition Yposition Zposition Xrotation Yrotation Zrotation
				JOINT Lrig_LEG_BR_PhalanxPrima
				{
					OFFSET 0.000000 0.000000 0.000000
					CHANNELS 6 Xposition Yposition Zposition Xrotation Yrotation Zrotation
					JOINT Lrig_LEG_BR_RearHoof
					{
						OFFSET 0.000000 0.000000 0.000000
						CHANNELS 6 Xposition Yposition Zposition Xrotation Yrotation Zrotation
						End Site
						{
							OFFSET 0.000000 5.000000 0.000000
						}
					}
				}
			}
		}
	}
	JOINT Lrig_LEG_BL_Femur
	{
		OFFSET 0.000000 0.000000 0.000000
		CHANNELS 6 Xposition Yposition Zposition Xrotation Yrotation Zrotation
		JOINT Lrig_LEG_BL_Tibia
		{
			OFFSET 0.000000 0.000000 0.000000
			CHANNELS 6 Xposition Yposition Zposition Xrotation Yrotation Zrotation
			JOINT Lrig_LEG_BL_LargeCannon
			{
				OFFSET 0.000000 0.000000 0.000000
				CHANNELS 6 Xposition Yposition Zposition Xrotation Yrotation Zrotation
				JOINT Lrig_LEG_BL_PhalanxPrima
				{
					OFFSET 0.000000 0.000000 0.000000
					CHANNELS 6 Xposition Yposition Zposition Xrotation Yrotation Zrotation
					JOINT Lrig_LEG_BL_RearHoof
					{
						OFFSET 0.000000 0.000000 0.000000
						CHANNELS 6 Xposition Yposition Zposition Xrotation Yrotation Zrotation
						End Site
						{
							OFFSET 0.000000 5.000000 0.000000
						}
					}
				}
			}
		}
	}
}
MOTION
Frames: 5
Frame Time: 0.041667
-0.196804 1.828184 37.981812 189.951017 85.089609 -277.865619 -0.000000 -0.000001 -0.000000 0.363730 -0.564720 -3.648989 5.362306 0.000002 -0.000001 3.783562 0.207454 -2.684024 5.362306 -0.000007 0.000000 0.567152 1.341407 4.533352 -0.000000 -0.000001 0.000000 0.000235 -0.000535 -54.984816 8.008852 -0.000002 -0.000000 0.000535 -0.000096 -28.578333 7.824180 -0.000003 -0.000001 0.000208 0.000665 -7.880576 7.113200 -0.000003 0.000000 -0.000344 -0.000056 108.685167 5.607288 4.872431 0.000001 0.000000 -0.000000 0.000000 -1.359045 -0.502208 2.742350 -164.581358 -11.713579 -70.556127 9.263975 -0.000004 -0.000001 -9.529646 -23.638132 -44.496794 6.653766 -0.000004 0.000001 -4.177543 6.067703 57.152871 9.232681 -0.000001 0.000004 -0.486208 4.519343 -55.729815 11.202322 -0.000002 -0.000002 -0.163128 -0.108775 33.511405 3.457447 -0.323214 -0.030625 -7.515121 0.386429 -28.833367 -1.359046 -0.502212 -2.742349 159.407449 14.268914 -73.389502 9.263966 -0.000003 -0.000003 27.421191 31.367951 -27.402400 6.653769 -0.000003 -0.000000 6.964818 -11.650177 112.400257 9.232679 0.000002 -0.000003 -3.074156 -2.221817 -118.260013 11.202324 -0.000002 0.000000 -5.746382 -4.498036 29.848217 3.457447 -0.323216 0.030627 -1.855531 1.215979 -39.855076 -5.179139 0.827906 1.788659 98.623191 -105.154225 33.655245 2.940841 0.000003 0.000002 -111.305603 11.466433 -31.374006 8.136322 -0.000007 0.000000 13.803864 3.937179 56.644856 14.508141 -0.000002 -0.000000 -0.926739 8.135852 -54.728738 -5.179138 0.827909 -1.788659 -98.623191 105.154225 33.655245 2.940849 0.000000 -0.000001 111.305610 -11.466429 -31.374009 8.136314 -0.000002 -0.000000 -13.803900 -3.937213 56.644798 14.508134 0.000003 -0.000001 0.926739 -8.135851 -54.728735 29.019047 0.680186 0.000013 -0.000000 0.000000 -0.378840 -6.748743 4.002027 -4.430605 185.618355 6.199304 -65.479439 9.149285 0.000007 0.000001 2.030848 1.054491 -75.516245 5.826587 0.000003 -0.000001 -3.529924 -3.506883 39.411995 17.801519 -0.000004 0.000002 21.420938 1.747235 43.403287 3.575815 0.247351 0.022603 0.273055 -0.292088 -26.935548 -6.748741 4.002033 4.430604 192.391362 11.623264 -47.941699 9.149277 0.000003 -0.000001 -2.212724 -3.174490 -155.561274 5.826588 0.000003 0.000001 -0.648121 4.193639 109.316816 17.801519 -0.000002 0.000000 -1.263347 -2.085363 29.657081 3.575814 0.247350 -0.022602 -2.467635 0.167364 -43.447086 
0.311024 1.828184 38.114628 190.899129 84.767408 -278.730348 -0.000000 -0.000002 -0.000000 0.484759 1.642690 -3.520981 5.362306 0.000004 -0.000000 4.044160 1.144412 -2.760275 5.362305 -0.000001 -0.000000 0.767219 -1.662216 4.577117 -0.000000 -0.000000 -0.000000 0.000235 -0.000535 -55.008189 8.008857 -0.000000 -0.000000 0.000535 -0.000097 -28.689257 7.824183 -0.000004 -0.000001 0.000113 -0.000016 -7.973452 7.113196 -0.000003 -0.000000 -0.000344 -0.000056 108.672278 5.607283 4.872428 0.000001 -0.000000 -0.000000 -0.000002 -1.359045 -0.502213 2.742350 -163.576228 -12.153756 -71.087038 9.263968 -0.000002 -0.000001 -13.079949 -24.189339 -44.599872 6.653768 -0.000003 0.000001 -4.416849 6.889045 64.907144 9.232679 0.000002 0.000003 0.228209 4.670730 -66.632416 11.202322 -0.000002 -0.000002 -0.042668 -0.250048 35.599957 3.457447 -0.323214 -0.030625 -4.912425 -0.166917 -37.443203 -1.359046 -0.502216 -2.742349 160.418645 13.711437 -72.815813 9.263966 0.000001 -0.000003 25.794699 31.795582 -39.864710 6.653769 -0.000001 -0.000000 8.286988 -12.606210 122.063294 9.232679 0.000003 -0.000003 -3.975192 -3.030863 -108.559553 11.202324 -0.000004 -0.000000 -5.306479 -1.957309 29.340307 3.457446 -0.323215 0.030627 -0.393753 1.418901 -37.367559 -5.179140 0.827902 1.788659 98.623191 -105.154225 33.655245 2.940838 0.000003 0.000001 -111.305610 11.466429 -31.374006 8.136323 0.000002 0.000000 13.803865 3.937178 56.644859 14.508154 -0.000002 -0.000001 -0.926740 8.135851 -54.728735 -5.179138 0.827906 -1.788659 -98.623191 105.154225 33.655238 2.940847 -0.000000 -0.000002 111.305610 -11.466429 -31.374009 8.136320 -0.000002 0.000001 -13.803901 -3.937211 56.644794 14.508133 0.000001 -0.000001 0.926738 -8.135852 -54.728735 29.019047 0.680186 0.000013 -0.000000 0.000000 -0.378840 -6.748743 4.002023 -4.430604 184.399316 7.109900 -71.628119 9.149282 0.000006 0.000001 1.989635 1.037211 -72.979233 5.826587 0.000003 -0.000001 -3.608527 -3.406627 38.055321 17.801517 -0.000005 0.000002 0.000284 -0.000032 30.556928 3.575815 0.247350 0.022603 21.629609 -6.580238 -22.678784 -6.748740 4.002033 4.430604 191.099322 11.904910 -46.527249 9.149274 0.000009 0.000001 -2.250120 -2.888691 -150.327751 5.826589 0.000006 0.000001 -0.327733 4.366348 104.035536 17.801516 -0.000003 0.000000 -1.408512 -1.467546 30.565001 3.575815 0.247351 -0.022600 -1.749018 0.615698 -38.007117 
0.740725 1.828184 37.829460 189.023942 85.464156 -276.727682 0.000000 -0.000001 -0.000000 0.504501 3.140054 -3.487670 5.362306 -0.000002 -0.000000 3.537637 1.535898 -2.863738 5.362306 -0.000005 0.000000 0.810990 -3.851686 4.634456 -0.000002 0.000005 0.000000 0.000235 -0.000535 -55.024632 8.008849 -0.000001 -0.000000 0.000535 -0.000097 -28.763914 7.824178 -0.000004 -0.000001 0.000210 0.000665 -8.036936 7.113203 -0.000004 -0.000000 -0.000344 -0.000056 108.661220 5.607287 4.872430 0.000001 0.000000 -0.000000 0.000000 -1.359046 -0.502206 2.742351 -162.431843 -12.687339 -71.702445 9.263969 -0.000002 -0.000001 -17.211250 -25.092518 -43.104555 6.653762 -0.000003 0.000002 -4.806422 8.082966 76.286731 9.232681 0.000001 0.000004 1.279523 4.528624 -82.133230 11.202323 -0.000001 -0.000002 0.394690 -0.078695 35.080145 3.457448 -0.323213 -0.030625 -1.978001 -0.617980 -50.500595 -1.359047 -0.502209 -2.742349 161.562688 13.115489 -72.178092 9.263964 0.000001 -0.000000 22.561240 28.389307 -47.813261 6.653770 -0.000001 -0.000001 6.923618 -10.489139 100.298138 9.232682 -0.000004 -0.000003 -2.794272 -5.606196 -72.868816 11.202323 -0.000000 0.000000 -3.743694 0.492405 29.058128 3.457447 -0.323215 0.030627 0.856830 1.049844 -35.019493 -5.179141 0.827910 1.788659 98.623191 -105.154225 33.655238 2.940840 0.000005 0.000002 -111.305610 11.466428 -31.374013 8.136323 -0.000001 -0.000000 13.803864 3.937180 56.644856 14.508138 -0.000001 -0.000001 -0.926740 8.135851 -54.728735 -5.179140 0.827913 -1.788659 -98.623191 105.154218 33.655241 2.940847 -0.000001 -0.000000 111.305610 -11.466430 -31.374009 8.136316 0.000001 -0.000000 -13.803899 -3.937213 56.644801 14.508137 0.000002 -0.000000 0.926742 -8.135852 -54.728738 29.019045 0.680191 0.000013 0.000000 -0.000000 -0.378840 -6.748744 4.002024 -4.430604 181.742222 6.689641 -58.988628 9.149283 0.000006 0.000001 2.362190 1.375943 -106.868056 5.826586 0.000005 -0.000000 -2.256195 -4.459308 58.280037 17.801517 -0.000003 0.000003 0.593844 0.265729 32.645562 3.575814 0.247351 0.022603 20.705134 -5.707764 -32.446581 -6.748741 4.002033 4.430604 188.811905 11.453173 -44.797353 9.149274 0.000007 0.000001 -2.332893 -2.621281 -146.736232 5.826588 0.000004 0.000001 -0.069558 4.514814 99.186634 17.801514 -0.000001 -0.000000 -2.021795 -0.827644 32.359609 3.575814 0.247350 -0.022601 -1.507314 1.325221 -33.206809 
1.061047 1.828184 37.294289 183.151714 86.792983 -270.603953 0.000000 0.000005 -0.000000 0.450256 3.782592 -3.636062 5.362306 0.000004 0.000000 2.534585 1.429848 -3.086671 5.362306 -0.000005 -0.000000 0.728985 -4.959289 4.745602 0.000000 0.000004 0.000000 0.000235 -0.000535 -55.023949 8.008856 0.000001 0.000000 0.000535 -0.000097 -28.761851 7.824180 -0.000003 -0.000001 0.000210 0.000665 -8.034644 7.113205 -0.000003 0.000000 -0.000344 -0.000056 108.661220 5.607285 4.872427 0.000001 0.000000 -0.000000 -0.000002 -1.359045 -0.502210 2.742350 -161.244524 -13.277252 -72.353936 9.263968 -0.000002 -0.000003 -21.405955 -26.303395 -39.708005 6.653764 -0.000003 0.000002 -5.188475 9.131919 86.640977 9.232681 0.000002 0.000004 2.094635 3.926230 -97.728901 11.202325 -0.000002 -0.000002 0.970744 0.776944 33.547379 3.457449 -0.323216 -0.030625 0.845321 -0.651903 -58.720687 -1.359046 -0.502212 -2.742349 162.749775 12.535671 -71.530194 9.263966 -0.000001 -0.000002 18.511886 25.515223 -50.296338 6.653771 -0.000003 -0.000000 5.969847 -8.752256 83.852299 9.232683 0.000001 -0.000003 -0.965995 -6.252003 -45.236845 11.202321 -0.000004 0.000000 -1.476299 1.877596 26.007390 3.457447 -0.323216 0.030627 1.609610 0.387037 -33.611248 -5.179140 0.827905 1.788659 98.623191 -105.154225 33.655238 2.940840 0.000006 0.000002 -111.305610 11.466429 -31.374009 8.136321 -0.000003 0.000001 13.803866 3.937178 56.644859 14.508140 -0.000002 -0.000001 -0.926741 8.135852 -54.728738 -5.179138 0.827910 -1.788659 -98.623191 105.154225 33.655241 2.940848 -0.000003 -0.000001 111.305610 -11.466430 -31.374006 8.136322 0.000000 0.000000 -13.803901 -3.937214 56.644798 14.508139 0.000002 -0.000000 0.926739 -8.135852 -54.728738 29.019043 0.680189 0.000013 0.000000 -0.000000 -0.378840 -6.748743 4.002029 -4.430604 177.953421 5.496325 -48.677686 9.149279 0.000007 0.000001 2.659009 1.723799 -136.605819 5.826587 0.000001 -0.000001 -0.778556 -4.883920 77.989627 17.801516 -0.000005 0.000002 1.233737 1.065682 34.106099 3.575814 0.247351 0.022603 18.748386 -4.584002 -45.059936 -6.748739 4.002037 4.430604 185.967774 10.341644 -43.301422 9.149275 0.000007 0.000000 -2.407784 -2.307481 -141.472233 5.826587 0.000005 0.000001 0.293380 4.656706 92.774296 17.801516 -0.000003 0.000000 -3.169857 -0.183693 34.876752 3.575813 0.247351 -0.022601 -1.557966 2.054771 -29.365039 
1.264179 1.828184 36.712242 166.388258 88.202700 -253.553424 -0.000000 0.000004 -0.000000 0.362012 3.857200 -3.864700 5.362307 0.000004 -0.000000 1.382171 1.077596 -3.355518 5.362306 -0.000006 0.000000 0.588041 -5.313683 4.878418 -0.000000 0.000002 -0.000000 0.000235 -0.000535 -55.015005 8.008854 0.000000 -0.000000 0.000535 -0.000097 -28.719969 7.824177 -0.000005 -0.000001 0.000113 -0.000016 -7.998375 7.113206 -0.000004 -0.000000 -0.000344 -0.000056 108.666718 5.607285 4.872427 0.000001 -0.000000 0.000000 0.000000 -1.359046 -0.502205 2.742350 -160.127365 -13.868844 -72.979718 9.263968 -0.000003 -0.000001 -25.292266 -27.705640 -35.134725 6.653762 -0.000003 0.000002 -5.506770 9.915616 94.891279 9.232682 -0.000001 0.000004 2.466616 3.090343 -111.386138 11.202321 -0.000002 -0.000002 1.610803 2.177831 32.400556 3.457447 -0.323213 -0.030625 3.099505 -0.329186 -59.921632 -1.359047 -0.502210 -2.742349 163.865445 12.024656 -70.933352 9.263967 0.000002 -0.000001 15.386867 23.688587 -54.122330 6.653770 -0.000004 -0.000001 5.638402 -7.933315 76.638226 9.232682 -0.000001 -0.000003 0.022159 -6.304297 -27.537815 11.202321 -0.000001 0.000000 1.044526 2.503021 22.358380 3.457448 -0.323214 0.030627 1.949499 -0.114339 -32.020173 -5.179141 0.827908 1.788659 98.623191 -105.154225 33.655245 2.940840 0.000004 0.000002 -111.305610 11.466428 -31.374009 8.136324 0.000000 -0.000000 13.803865 3.937178 56.644859 14.508143 -0.000002 -0.000003 -0.926740 8.135849 -54.728738 -5.179139 0.827911 -1.788659 -98.623191 105.154225 33.655245 2.940845 -0.000000 -0.000001 111.305610 -11.466428 -31.374009 8.136319 0.000003 0.000000 -13.803900 -3.937211 56.644798 14.508139 0.000002 -0.000001 0.926740 -8.135851 -54.728735 29.019041 0.680190 0.000013 -0.000000 -0.000000 -0.378840 -6.748744 4.002028 -4.430604 174.117709 3.545321 -43.450184 9.149284 0.000006 0.000000 2.800822 2.192985 -157.042605 5.826586 0.000001 -0.000001 0.367453 -4.761430 94.309312 17.801519 -0.000004 0.000003 1.618291 2.125935 34.136575 3.575815 0.247352 0.022602 16.199450 -3.292117 -54.531223 -6.748741 4.002037 4.430604 183.143203 8.519208 -44.598427 9.149274 0.000005 0.000000 -2.376457 -1.867313 -126.792626 5.826589 0.000004 0.000001 1.146440 4.694545 80.262639 17.801516 -0.000003 -0.000001 -4.853718 0.302696 36.711177 3.575814 0.247350 -0.022601 -1.746689 2.592744 -27.362564 
